<svg width="256" height="256" viewBox="0 0 256 256" fill="none" xmlns="http://www.w3.org/2000/svg">
  <g clip-path="url(#clip0_1488_5712)">
    <rect width="256" height="256" fill="white" />
    <path
      d="M106.162 168.661C109.222 169.086 112.227 169.565 115.176 169.988C119.238 170.646 123.3 171.304 127.361 171.851C128.473 171.975 128.757 172.478 128.657 173.477C128.157 178.248 128.268 182.97 129.433 187.649C130.19 190.713 131.447 193.727 132.482 196.738C133.63 199.973 135.442 202.882 137.527 205.517C139.783 208.431 142.424 211.072 145.064 213.602C148.658 216.977 153.071 219.194 157.592 221.079C163.34 223.423 169.24 224.492 175.35 224.563C181.239 224.631 186.836 223.529 192.311 221.538C197.732 219.601 202.698 216.771 207.154 213.101C210.895 210.034 214.243 206.574 216.974 202.607C220.307 197.813 222.69 192.62 224.236 187.028C225.461 182.544 225.908 177.939 225.797 173.216C225.636 168.882 225.033 164.765 223.763 160.64C223.069 158.299 222.099 156.011 221.018 153.832C219.139 149.867 216.433 146.392 213.505 143.025C209.96 139.041 205.923 135.772 201.392 132.998C196.581 130.054 191.394 128.161 185.831 127.43C179.768 126.637 173.831 127.179 168.021 129.056C162.543 130.825 157.519 133.488 152.894 136.989C153.003 136.769 152.675 137.209 152.894 136.989C152.676 137.32 151.689 138.42 151.803 138.643C152.595 139.874 153.497 141.107 154.399 142.228C157.214 145.482 159.975 148.902 163.121 151.938C166.83 155.647 171.353 157.754 176.736 157.317C180.176 157.024 183.27 155.616 186.194 153.928C188.401 152.62 190.667 151.702 193.22 151.51C196.605 151.271 201.468 153.938 203.171 157.069C205.1 160.535 205.474 164.094 204.016 167.687C203.262 169.678 202.06 171.441 200.128 172.474C196.816 174.213 193.562 176.23 190.135 177.634C184.552 179.958 178.673 180.667 172.611 179.986C167.05 179.366 162.138 177.309 157.384 174.422C152.518 171.532 148.584 167.599 144.704 163.499C141.837 160.522 139.244 157.27 136.598 154.185C134.571 151.829 132.544 149.472 130.573 147.172C128.547 144.816 126.464 142.403 124.437 140.047C123.536 139.037 122.746 137.917 121.955 136.797C121.447 136.069 120.685 136.539 119.969 137.031C113.528 142.01 107.064 145.844 99.319 148.531C91.6854 151.22 83.8141 152.572 75.6464 152.311C69.034 152.067 62.6349 151.049 56.3326 148.81C50.6995 146.8 45.5005 143.907 40.4087 140.682C34.1969 136.666 29.3028 131.333 24.2989 126.11C22.7254 124.536 21.7023 122.525 20.4596 120.733C19.669 119.613 18.8222 118.437 18.1414 117.207C13.9495 110.16 11.1954 102.574 9.6582 94.5583C8.12231 86.6534 7.97574 78.8203 9.21733 70.9477C9.99446 66.1245 11.05 61.3602 12.942 56.8832C14.2404 53.899 15.3153 50.8012 16.8384 48.0417C19.0127 43.9569 21.2431 39.9282 24.425 36.5215C27.497 33.2246 30.6253 29.984 33.866 26.8557C36.8857 23.836 40.3564 21.3769 44.1654 19.366C48.1954 17.2467 52.2803 15.0725 56.5389 13.5112C63.3961 10.9248 70.6021 9.67542 77.9844 9.26126C84.7014 8.95046 91.3712 9.36117 97.8343 11.1025C102.013 12.2063 106.196 13.7545 110.269 15.3014C114.565 16.962 118.481 19.3403 122.233 21.9944C126.769 25.213 130.978 28.9831 134.528 33.3011C136.837 36.0495 139.036 38.9077 140.96 41.9293C143.507 46.0134 145.668 50.3708 147.22 54.8878C149.689 61.8592 151.216 68.9863 151.301 76.3189C151.342 79.8741 151.049 83.3143 150.979 86.8682C150.932 87.5897 150.712 87.8093 149.988 87.6342C147.262 87.2138 144.536 86.7933 141.809 86.3729C137.692 85.7697 133.519 85.1102 129.401 84.507C128.568 84.4417 128.287 84.1608 128.387 83.2733C128.833 78.5574 128.666 73.7788 127.723 69.1023C127.018 65.7616 125.98 62.5281 124.5 59.4006C122.791 55.7149 120.861 52.1378 118.105 49.1621C115.123 45.8505 112.085 42.5937 108.28 40.1057C102.067 35.979 95.3174 33.5123 88.0294 32.4835C82.4654 31.6413 76.9693 31.8552 71.5396 33.014C64.3924 34.5418 57.8174 37.5202 51.8684 41.7835C48.0121 44.5158 44.6068 47.8087 41.7058 51.4964C38.4755 55.5135 35.9731 60.0388 34.1425 65.0164C32.1484 70.2697 31.1568 75.7569 31.0553 81.3655C30.8886 86.1402 31.6643 90.7592 32.9393 95.3285C33.9805 98.8953 35.5184 102.19 37.3896 105.489C40.6236 111.358 45.4525 115.858 50.4461 120.192C52.971 122.388 56.0462 124.145 59.1189 125.681C63.7546 127.901 68.7134 129.236 73.8827 129.574C81.1629 129.936 87.9781 128.515 94.4969 125.481C98.1987 123.802 101.152 122.264 104.458 119.969C105.12 119.532 105.635 118.501 105.072 117.828C104.283 116.819 103.492 115.699 102.648 114.745C99.7769 111.434 96.9058 108.124 93.87 104.978C91.1727 102.281 87.985 100.411 84.2548 99.6457C81.0265 99.0528 77.7536 99.4035 74.8268 100.869C72.3968 102.063 70.1917 103.481 67.7617 104.675C64.0624 106.576 60.4523 106.59 56.7603 104.325C53.7948 102.458 51.5993 99.933 51.0575 96.3165C50.2728 90.9197 52.336 86.8336 56.8601 84.2201C59.894 82.4224 63.039 80.626 66.3003 79.2753C71.606 77.0042 77.2069 76.2361 83.0441 76.6927C88.4918 77.0892 93.5656 78.7588 98.2078 81.5343C101.284 83.4029 104.089 85.7683 106.892 88.0225C108.406 89.2065 109.756 90.6662 110.994 92.1247C113.92 95.3801 116.737 98.7454 119.608 102.056C120.959 103.627 122.366 105.254 123.718 106.825C125.52 108.956 127.322 111.088 129.18 113.275C131.095 115.519 133.009 117.763 134.867 119.951C135.543 120.736 136.261 119.851 137.031 119.194C142.643 114.593 148.657 111.669 155.458 109.026C159.549 107.407 163.7 106.178 168.079 105.396C173.898 104.297 179.728 104.087 185.677 104.656C191.127 105.163 196.416 106.28 201.437 108.227C206.626 110.231 211.433 112.842 216.079 115.951C222.013 119.907 227.011 124.687 231.683 130.017C235.118 134.001 238.167 138.368 240.555 143.062C244.872 151.332 247.307 160.136 248.136 169.31C248.707 175.482 248.334 181.587 247.238 187.629C246.144 193.892 244.214 199.868 241.558 205.558C239.176 210.863 236.291 215.884 232.454 220.282C229.714 223.472 226.862 226.66 223.674 229.511C219.661 233.075 215.309 236.191 210.563 238.801C204.436 242.118 197.91 244.486 191.096 246.018C186.497 247.02 181.783 247.576 177.008 247.743C170.235 247.997 163.615 247.087 157.042 245.456C152.585 244.293 148.289 242.633 144.1 240.64C139.743 238.479 135.77 235.933 131.848 233C127.87 230.01 124.552 226.472 121.288 222.879C119.15 220.522 117.231 217.834 115.643 215.038C113.488 211.236 111.72 207.272 109.896 203.252C107.901 198.841 106.847 194.163 106.014 189.377C104.882 182.754 104.748 176.032 105.668 169.155L106.162 168.661Z"
      fill="url(#paint0_linear_1488_5712)" />
    <path
      d="M121.606 136.404C121.72 136.494 121.834 136.623 121.955 136.797L121.606 136.404C121.243 136.118 120.514 136.657 119.969 137.031L104.458 119.969C105.12 119.532 105.635 118.501 105.072 117.828L121.606 136.404Z"
      fill="url(#paint1_linear_1488_5712)" />
    <path
      d="M152.894 136.989C152.676 137.32 151.689 138.42 151.803 138.643L134.99 120.086C134.95 120.044 134.909 119.999 134.867 119.951L134.99 120.086C135.606 120.728 136.308 119.811 137.031 119.194L152.894 136.989Z"
      fill="white" />
  </g>
  <defs>
    <linearGradient id="paint0_linear_1488_5712" x1="28.7541" y1="26.6853" x2="228.767" y2="230.149"
      gradientUnits="userSpaceOnUse">
      <stop stop-color="#01BD14" />
      <stop offset="0.505208" stop-color="#04B2A6" />
      <stop offset="1" stop-color="#0F0094" />
    </linearGradient>
    <linearGradient id="paint1_linear_1488_5712" x1="28.7541" y1="26.6853" x2="228.767" y2="230.149"
      gradientUnits="userSpaceOnUse">
      <stop stop-color="#01BD14" />
      <stop offset="0.505208" stop-color="#04B2A6" />
      <stop offset="1" stop-color="#0F0094" />
    </linearGradient>
    <clipPath id="clip0_1488_5712">
      <rect width="256" height="256" fill="white" />
    </clipPath>
  </defs>
</svg>