<?xml version="1.0" standalone="no"?>
<!DOCTYPE svg PUBLIC "-//W3C//DTD SVG 20010904//EN"
 "http://www.w3.org/TR/2001/REC-SVG-20010904/DTD/svg10.dtd">
<svg version="1.0" xmlns="http://www.w3.org/2000/svg"
 width="658.000000pt" height="658.000000pt" viewBox="0 0 658.000000 658.000000"
 preserveAspectRatio="xMidYMid meet">
<metadata>
Created by potrace 1.14, written by Peter Selinger 2001-2017
</metadata>
<g transform="translate(0.000000,658.000000) scale(0.100000,-0.100000)"
fill="#000000" stroke="none">
<path d="M1840 6533 c-71 -8 -289 -46 -297 -53 -3 -3 -5 -3 -48 -14 -58 -16
-171 -55 -245 -86 -88 -36 -244 -119 -248 -131 -2 -5 -8 -9 -14 -9 -11 0 -142
-89 -173 -117 -11 -10 -33 -29 -50 -41 -34 -26 -180 -168 -240 -233 -171 -185
-283 -370 -378 -624 -49 -130 -90 -273 -101 -355 -3 -19 -7 -44 -9 -55 -20
-88 -27 -348 -14 -500 7 -82 27 -205 47 -285 6 -25 12 -52 14 -61 38 -156 203
-482 302 -596 10 -12 28 -34 39 -49 20 -27 90 -106 150 -169 66 -67 205 -180
305 -247 100 -67 353 -198 382 -198 8 0 19 -5 26 -12 7 -7 12 -9 12 -6 0 4 29
-4 65 -17 36 -13 65 -22 65 -20 0 2 15 -1 33 -6 17 -5 57 -12 87 -15 30 -4 69
-8 85 -11 32 -4 336 -7 395 -3 64 4 204 30 270 49 81 23 228 79 257 98 12 8
25 14 28 13 8 -2 194 101 239 132 44 30 216 160 220 166 2 4 -72 102 -165 217
-93 115 -169 212 -169 215 0 3 -9 11 -21 18 -18 12 -27 8 -83 -38 -35 -27 -68
-50 -74 -50 -6 0 -12 -3 -14 -7 -5 -12 -88 -64 -88 -56 0 5 -4 4 -8 -2 -24
-34 -247 -116 -377 -139 -128 -24 -304 -23 -405 0 -14 3 -41 9 -60 14 -221 49
-480 218 -660 429 -52 62 -157 217 -166 246 -4 11 -10 22 -14 25 -14 10 -63
145 -86 238 -48 196 -50 470 -4 632 12 41 23 83 25 93 14 62 142 337 157 337
4 0 8 5 8 10 0 35 212 282 273 318 15 9 27 22 27 29 0 7 5 13 10 13 6 0 16 5
23 11 76 66 220 149 367 212 55 24 194 60 275 72 28 4 61 9 75 11 42 7 231 6
295 -1 94 -10 259 -52 343 -87 223 -92 419 -255 561 -466 37 -54 94 -157 96
-172 0 -3 6 -14 12 -25 15 -27 61 -165 74 -223 19 -85 21 -105 26 -282 3 -96
6 -176 8 -178 2 -2 20 -5 42 -8 21 -2 58 -6 83 -9 25 -3 70 -7 100 -9 30 -3
71 -7 90 -10 19 -3 58 -8 85 -10 28 -2 80 -7 118 -11 l67 -7 1 44 c5 199 0
362 -16 468 -2 14 -6 48 -10 75 -3 28 -8 58 -11 67 -3 9 -6 25 -8 35 -30 149
-114 364 -196 499 -22 36 -40 68 -40 70 0 6 -41 64 -57 82 -7 7 -13 17 -13 20
0 4 -10 18 -22 32 -13 14 -35 41 -50 61 -77 104 -263 270 -393 353 -33 21 -71
46 -85 55 -56 38 -323 156 -373 165 -7 1 -37 9 -67 18 -74 20 -146 36 -200 44
-25 3 -56 8 -70 11 -31 5 -392 10 -440 6z"/>
<path d="M1890 4710 c-97 -16 -128 -23 -210 -51 -93 -32 -233 -97 -238 -111
-2 -4 -10 -8 -17 -8 -8 0 -44 -29 -82 -65 -37 -36 -65 -65 -61 -65 4 0 -2 -17
-13 -37 -31 -56 -29 -174 4 -245 28 -61 74 -118 93 -118 8 0 14 -4 14 -9 0
-15 107 -51 153 -51 39 0 104 18 145 39 234 124 391 146 547 78 21 -10 42 -21
45 -26 3 -4 23 -19 45 -34 65 -44 238 -221 269 -276 5 -9 17 -23 25 -31 14
-13 66 -74 121 -143 8 -11 20 -24 25 -31 9 -10 216 -262 255 -310 8 -10 20
-23 25 -30 6 -6 58 -67 115 -136 58 -69 110 -130 116 -136 5 -6 26 -30 45 -54
18 -23 42 -52 52 -63 10 -12 37 -44 60 -71 23 -28 59 -70 81 -95 21 -25 47
-57 59 -71 298 -363 497 -530 727 -611 169 -60 404 -54 567 13 16 6 37 13 47
15 11 2 27 10 36 18 9 8 21 15 27 15 6 0 59 24 119 54 227 112 317 214 310
352 -10 182 -178 317 -351 280 -55 -11 -81 -20 -92 -29 -7 -5 -13 -6 -13 -3 0
4 -35 -12 -77 -36 -119 -65 -210 -108 -244 -115 -16 -3 -32 -9 -35 -14 -2 -4
-10 -6 -17 -4 -7 2 -30 7 -51 10 -49 7 -132 51 -218 116 -75 56 -279 255 -373
363 -33 38 -65 74 -70 80 -12 13 -216 257 -240 288 -204 259 -361 455 -372
464 -7 6 -13 14 -13 18 0 3 -9 16 -19 28 -10 13 -88 106 -173 208 -200 242
-417 460 -457 460 -6 0 -11 4 -11 9 0 10 -215 119 -247 125 -12 3 -32 10 -45
17 -13 7 -24 11 -26 10 -1 -1 -15 0 -30 3 -15 4 -38 9 -52 12 -41 8 -232 11
-280 4z"/>
<path d="M4498 3984 c-2 -2 -22 -6 -44 -9 -120 -18 -177 -32 -324 -80 -64 -22
-196 -86 -315 -155 -62 -36 -274 -170 -293 -186 -9 -7 16 -41 156 -209 10 -11
35 -42 57 -70 22 -27 42 -52 45 -55 3 -3 23 -27 45 -55 22 -27 45 -56 52 -63
7 -7 19 -22 27 -34 15 -21 15 -21 68 19 29 22 67 49 83 59 17 10 32 21 35 24
14 16 214 110 275 129 39 13 77 25 85 28 19 8 18 8 60 16 19 3 51 10 70 14 86
17 368 5 413 -19 9 -5 17 -6 17 -4 0 18 220 -78 315 -137 124 -77 356 -296
413 -389 9 -16 20 -28 24 -28 4 0 8 -4 8 -10 0 -5 13 -30 30 -56 52 -82 120
-263 136 -364 3 -19 7 -37 9 -41 8 -12 19 -160 18 -249 -1 -195 -42 -378 -126
-560 -22 -49 -108 -200 -121 -212 -7 -7 -17 -20 -22 -29 -28 -50 -167 -199
-250 -269 -130 -109 -322 -214 -482 -263 -45 -14 -82 -23 -82 -21 0 3 -8 1
-17 -5 -10 -5 -47 -12 -83 -16 -36 -4 -74 -9 -85 -11 -26 -6 -284 -6 -310 0
-11 2 -42 7 -70 10 -103 14 -167 34 -310 101 -252 116 -474 339 -594 596 -40
84 -90 222 -97 269 -3 14 -7 31 -9 39 -13 35 -19 119 -20 254 0 124 -2 147
-15 148 -8 0 -22 2 -30 4 -16 4 -71 12 -135 21 -22 3 -51 7 -65 9 -14 3 -45 6
-70 9 -25 2 -56 7 -70 10 -14 3 -45 8 -70 11 -25 2 -64 8 -87 11 -24 3 -43 2
-44 -2 0 -5 -2 -18 -4 -29 -4 -17 -17 -192 -17 -220 0 -53 14 -240 18 -247 3
-5 7 -23 10 -41 7 -58 13 -91 28 -158 19 -78 53 -196 66 -224 5 -11 19 -45 31
-75 45 -119 143 -288 245 -420 54 -72 204 -224 276 -280 101 -80 120 -94 192
-139 88 -55 301 -162 336 -169 8 -1 38 -11 58 -19 30 -11 146 -44 177 -49 17
-3 32 -10 33 -15 2 -5 7 -7 10 -5 4 2 39 -2 77 -10 71 -13 538 -14 613 -1 18
4 59 11 90 18 31 6 65 12 75 12 9 1 17 4 17 7 0 4 6 7 13 7 6 0 39 9 72 19 33
10 63 18 67 18 3 1 10 4 14 8 4 5 13 8 21 8 23 0 242 101 343 158 86 48 193
124 274 192 99 83 275 271 339 360 77 110 107 156 107 167 0 7 4 13 8 13 9 0
29 37 30 54 0 5 4 12 9 15 10 7 69 126 106 216 41 98 99 299 113 388 2 15 6
42 9 60 13 73 19 170 19 297 0 164 -7 245 -36 390 -6 30 -11 60 -12 67 -1 7
-5 16 -9 19 -4 4 -7 15 -7 23 0 59 -153 438 -182 449 -4 2 -8 10 -8 17 0 13
-120 183 -173 245 -98 115 -227 237 -335 318 -180 134 -424 254 -637 312 -77
21 -110 28 -240 52 -57 10 -429 21 -437 12z"/>
</g>
</svg>
