<svg width="96" height="96" viewBox="0 0 96 96" fill="none" xmlns="http://www.w3.org/2000/svg">
<g clip-path="url(#clip0_1311_2120)">
<path d="M48 8C32.52 8 20 20.52 20 36C20 52.68 37.68 75.68 44.96 84.44C46.56 86.36 49.48 86.36 51.08 84.44C58.32 75.68 76 52.68 76 36C76 20.52 63.48 8 48 8Z" fill="white"/>
<path d="M55.5464 37.4573C55.2493 37.058 54.9646 36.6587 54.6798 36.2723C54.296 35.7313 53.9122 35.1903 53.516 34.6622C53.4046 34.5205 53.4294 34.4303 53.5532 34.3273C54.1475 33.8378 54.6674 33.284 55.0636 32.6142C55.3236 32.1762 55.5217 31.6868 55.7445 31.2231C55.9798 30.7207 56.1036 30.1797 56.1655 29.6387C56.2398 29.0462 56.2397 28.4408 56.2274 27.8483C56.2026 27.0497 55.955 26.2898 55.6579 25.5556C55.2741 24.6282 54.7293 23.8296 54.0484 23.1211C53.3922 22.4385 52.637 21.9232 51.7952 21.5239C50.9657 21.1246 50.0867 20.8799 49.1705 20.7897C48.4029 20.7124 47.6353 20.7253 46.8801 20.867C45.964 21.0345 45.1097 21.3565 44.305 21.8202C43.6612 22.1937 43.0917 22.6703 42.5717 23.2242C42.1013 23.7394 41.7051 24.2804 41.3832 24.8987C41.1975 25.2464 41.0489 25.62 40.9251 25.9935C40.6899 26.6633 40.6032 27.3717 40.5537 28.0931C40.5042 28.9561 40.5908 29.7933 40.7889 30.6306C40.9994 31.5193 41.3708 32.3308 41.9155 33.0521C42.5098 33.8378 43.2403 34.4561 44.1069 34.9069C44.924 35.332 45.7906 35.6025 46.7068 35.7313C46.7563 35.7313 46.8182 35.7828 46.8554 35.7699C46.9173 35.7571 47.0039 35.7055 47.0163 35.6669C47.0658 35.435 47.103 35.1903 47.1277 34.9585C47.1772 34.2629 47.2515 33.5545 47.2391 32.846C47.2391 31.9959 46.9668 31.2359 46.3106 30.6692C45.8897 30.3085 45.3821 30.1153 44.8621 29.9736C44.4659 29.8706 44.1069 29.716 43.7974 29.4455C43.3888 29.0849 43.1412 28.2219 43.3022 27.668C43.4755 27.0497 43.8345 26.5989 44.404 26.3542C44.7135 26.2125 45.0478 26.1481 45.3821 26.2511C45.9516 26.4315 46.5458 26.5731 47.0906 26.805C47.982 27.1785 48.7248 27.771 49.3314 28.5439C49.8886 29.2523 50.2105 30.0509 50.4209 30.9268C50.6438 31.8156 50.6438 32.7172 50.619 33.6317C50.6066 34.3015 50.5324 34.9713 50.4828 35.6282C50.4457 36.1306 50.4086 36.6329 50.3714 37.1224C50.3343 37.6247 50.2971 38.14 50.26 38.6423C50.2476 38.8613 50.2105 39.0803 50.1733 39.2992C50.1486 39.4409 50.1981 39.4796 50.3343 39.5053C51.6218 39.6728 52.8723 39.969 54.0484 40.5487C55.2122 41.1154 56.2521 41.8625 57.1435 42.8285C57.8616 43.6143 58.4682 44.4644 58.9263 45.4433C59.3349 46.3192 59.5948 47.2466 59.8053 48.1998C60.0529 49.3719 60.0034 50.5441 59.9786 51.7162C59.9786 52.0768 59.8672 52.4246 59.8053 52.7724C59.7682 52.9914 59.731 53.2232 59.6691 53.4422C59.3472 54.7303 58.8025 55.9153 58.0721 57.0101C57.354 58.0921 56.4874 59.0066 55.4598 59.7666C54.8284 60.2303 54.1722 60.6554 53.4541 60.9516C52.9713 61.1448 52.5008 61.3767 52.018 61.5184C51.3123 61.7373 50.6066 61.9434 49.8638 61.9692C49.1457 61.995 48.4277 62.0078 47.7096 61.9949C47.0287 61.9949 46.3601 61.879 45.704 61.6729C45.0107 61.454 44.305 61.235 43.6488 60.9259C42.5841 60.4364 41.6308 59.7537 40.7518 58.9551C39.9594 58.2209 39.2537 57.4094 38.7214 56.4691C38.3747 55.8638 38.0776 55.2068 37.7929 54.5628C37.4957 53.8801 37.3224 53.1588 37.1986 52.4246C37.05 51.5359 37.0005 50.6213 37.0872 49.7197C37.1367 49.1401 37.211 48.5604 37.3348 47.9937C37.5081 47.2337 37.7557 46.4866 38.09 45.7911C38.5976 44.7091 39.229 43.7173 40.0461 42.8672C40.4423 42.455 40.8632 42.0943 41.2718 41.695C41.3584 41.6177 41.4079 41.6178 41.4699 41.7208C41.7298 42.0815 41.9898 42.4421 42.2498 42.8028C42.646 43.3438 43.0422 43.8976 43.4383 44.4386C43.525 44.5417 43.525 44.6061 43.4136 44.6962C42.8317 45.1857 42.3117 45.7524 41.8908 46.3965C41.5937 46.8602 41.346 47.3496 41.1603 47.8778C40.9375 48.496 40.7518 49.1272 40.727 49.7841C40.6899 50.5054 40.6651 51.2267 40.8137 51.948C41.0489 53.1331 41.5318 54.1893 42.2374 55.1424C42.7698 55.8766 43.4136 56.482 44.1564 56.9715C45.1345 57.6155 46.2116 58.0277 47.363 58.2209C48.1058 58.3497 48.861 58.3626 49.6038 58.2724C50.4209 58.1823 51.2133 57.9504 51.9809 57.5898C52.798 57.2162 53.5284 56.701 54.1722 56.0698C54.7293 55.5417 55.1626 54.9235 55.5341 54.2537C55.8188 53.7256 56.0169 53.1717 56.1778 52.5792C56.475 51.5359 56.4378 50.4668 56.3635 49.3977C56.3264 48.8567 56.1778 48.3028 56.0045 47.7747C55.7321 46.989 55.3236 46.2677 54.7789 45.6365C53.9989 44.7606 53.0703 44.1424 51.9932 43.7431C51.3866 43.5112 50.7676 43.3824 50.1362 43.2665C50.0124 43.2407 49.9505 43.2665 49.9381 43.4082C49.9133 43.6143 49.8762 43.8332 49.8638 44.0393C49.8143 44.7477 49.7648 45.4562 49.7524 46.1646C49.7524 46.7829 49.901 47.3625 50.2352 47.8778C50.5324 48.3157 50.9409 48.6506 51.4361 48.818C51.8447 48.9597 52.2532 49.0499 52.6618 49.1916C53.2932 49.3977 53.7018 49.8098 53.8627 50.4925C53.9865 51.0464 53.9494 51.5874 53.6027 52.064C53.0827 52.7724 52.3894 53.0042 51.5847 52.7853C51.0399 52.6436 50.4828 52.489 49.9629 52.2701C49.1086 51.9223 48.3905 51.3684 47.7839 50.6471C47.2144 49.9773 46.8306 49.2045 46.6201 48.3543C46.4839 47.7876 46.4344 47.1951 46.3725 46.6154C46.3354 46.3063 46.3478 45.9843 46.3725 45.6752C46.4097 44.9667 46.4716 44.2583 46.5211 43.5498C46.5458 43.215 46.5706 42.8672 46.5954 42.5323C46.6325 42.0815 46.6697 41.6306 46.7068 41.1669C46.7439 40.6903 46.7811 40.2138 46.8182 39.7501C46.8306 39.5826 46.7687 39.5311 46.6077 39.5182C45.4564 39.4023 44.3297 39.1189 43.265 38.6423C42.6212 38.3589 42.0146 38.024 41.4327 37.6119C40.6527 37.0709 39.9718 36.4268 39.3652 35.6798C38.8081 34.9971 38.3376 34.2629 37.9909 33.4643C37.6319 32.6399 37.3843 31.7898 37.211 30.901C36.9881 29.7675 36.9634 28.6469 37.0376 27.5006C37.0995 26.6504 37.2481 25.8003 37.5081 24.9888C37.9538 23.5462 38.6719 22.2581 39.6128 21.1117C40.2442 20.3389 40.9746 19.682 41.7794 19.1152C42.6089 18.5227 43.5003 18.059 44.4412 17.7113C45.3078 17.3764 46.1992 17.1316 47.1277 17.0672C47.7963 17.0157 48.4772 16.9771 49.1581 17.0157C50.0124 17.0672 50.8542 17.2089 51.6837 17.4536C52.7485 17.7757 53.7513 18.2522 54.6922 18.8576C55.3236 19.2698 55.9179 19.7464 56.475 20.2745C57.2673 21.0216 57.9111 21.8846 58.4682 22.8249C58.8396 23.4689 59.1368 24.1516 59.3844 24.86C59.632 25.6071 59.7929 26.3542 59.9044 27.1399C60.0158 27.9385 59.991 28.7242 59.9539 29.5099C59.9291 30.0252 59.8425 30.5533 59.7063 31.0556C59.5206 31.7383 59.273 32.3952 59.0254 33.065C58.753 33.7992 58.3444 34.4561 57.8987 35.1001C57.2797 35.9889 56.5369 36.7746 55.6579 37.4573H55.5464Z" fill="url(#paint0_linear_1311_2120)"/>
</g>
<defs>
<linearGradient id="paint0_linear_1311_2120" x1="48.2667" y1="62.6003" x2="48.6688" y2="16.3591" gradientUnits="userSpaceOnUse">
<stop offset="0.16" stop-color="#0BB79E"/>
<stop offset="0.31" stop-color="#0B949C"/>
<stop offset="0.79" stop-color="#0E2A96"/>
<stop offset="1" stop-color="#0F0094"/>
</linearGradient>
<clipPath id="clip0_1311_2120">
<rect width="96" height="96" fill="white"/>
</clipPath>
</defs>
</svg>
