<?xml version="1.0" standalone="no"?>
<!DOCTYPE svg PUBLIC "-//W3C//DTD SVG 20010904//EN"
 "http://www.w3.org/TR/2001/REC-SVG-20010904/DTD/svg10.dtd">
<svg version="1.0" xmlns="http://www.w3.org/2000/svg"
 width="700.000000pt" height="700.000000pt" viewBox="0 0 700.000000 700.000000"
 preserveAspectRatio="xMidYMid meet">
<metadata>
Created by potrace 1.14, written by Peter Selinger 2001-2017
</metadata>
<g transform="translate(0.000000,700.000000) scale(0.100000,-0.100000)"
fill="#000000" stroke="none">
<path d="M3329 6799 c-295 -21 -602 -136 -874 -328 -108 -76 -295 -265 -377
-381 -312 -441 -391 -1004 -217 -1546 43 -135 88 -230 162 -342 158 -240 350
-410 607 -538 168 -84 334 -133 574 -170 l39 -5 -6 -97 c-4 -53 -15 -212 -27
-352 -38 -481 -39 -529 -24 -657 28 -230 79 -363 192 -504 125 -156 269 -243
516 -314 169 -48 263 -30 351 67 61 68 82 137 67 226 -22 134 -91 196 -269
247 -132 37 -179 61 -236 117 -103 103 -125 200 -108 472 7 104 15 203 18 219
6 29 7 29 57 23 28 -3 87 -15 131 -27 385 -100 646 -351 745 -714 28 -102 39
-394 20 -513 -71 -444 -424 -809 -880 -913 -129 -29 -323 -36 -451 -15 -403
67 -720 294 -893 643 -215 433 -117 964 237 1288 48 44 68 68 64 79 -11 27
-309 426 -318 426 -6 0 -76 -66 -157 -147 -158 -158 -226 -249 -313 -420 -113
-222 -165 -424 -176 -688 -11 -260 32 -479 140 -714 113 -245 223 -403 387
-554 214 -198 409 -309 710 -405 186 -59 236 -64 540 -60 262 5 266 5 378 37
440 124 759 344 998 687 118 169 211 386 261 605 26 116 28 139 27 344 0 243
-8 304 -70 518 -165 575 -646 988 -1269 1092 -135 23 -138 24 -131 42 4 8 20
189 37 402 39 485 37 698 -5 851 -50 181 -131 318 -253 430 -117 107 -232 164
-455 225 -85 23 -103 25 -140 14 -68 -18 -113 -45 -156 -94 -79 -90 -92 -200
-36 -311 37 -74 93 -114 213 -150 47 -15 106 -37 131 -49 113 -57 189 -164
211 -295 16 -97 -10 -462 -34 -487 -10 -10 -33 -8 -110 8 -292 59 -528 208
-674 424 -75 112 -116 211 -149 367 -23 103 -25 357 -5 468 80 443 434 795
901 896 104 23 348 25 460 5 304 -55 591 -234 762 -476 160 -226 225 -470 199
-745 -14 -145 -30 -209 -87 -335 -70 -155 -128 -240 -232 -343 -67 -66 -92
-97 -88 -108 4 -9 74 -108 157 -220 109 -147 156 -204 171 -204 34 0 284 260
365 380 85 127 116 188 177 347 65 174 95 298 107 448 34 434 -105 867 -387
1205 -244 292 -601 508 -974 588 -173 37 -324 46 -531 31z"/>
</g>
</svg>
